<?xml version="1.0" encoding="UTF-8"?>
<svg id="_图层_1" data-name="图层 1" xmlns="http://www.w3.org/2000/svg" version="1.1" xmlns:xlink="http://www.w3.org/1999/xlink" viewBox="0 0 200 200">
  <defs>
    <style>
      .cls-1 {
        display: none;
        fill: #4d6bfe;
        stroke-width: 0px;
      }
    </style>
  </defs>
  <path class="cls-1" d="M62.6,157.2c-53.6-25-47.4-103.6,8.2-103.6s16.8-1.4,22.4-2.8c11.6-3.2,19.4-2,13.6,2-1.8,1.4-3,3.8-2.6,5.6,1,4,31,31.6,34.6,31.6,5.4,0,5.4-6.4.2-11.2-8.4-7.6-10.8-17.6-7-27.6l1.8-5.2,10.6,10.2c7,6.8,11.4,9.6,13.4,8.6,1.8-.8,6-1.8,9.6-2.4,3.6-.4,7.6-2,8.8-3.6,3.8-4.6,8.4-3.4,7,1.8-.6,2.4-1.2,5.4-1.2,6.8,0,4.6-12.2,16.4-18,17.6-4.6,1-6,2.4-6,6,0,9-7.6,29-14.8,38.8l-7.4,10,7.2,3c11,4.6,8,8.2-7.4,8.4-8.4.2-14.8,1.4-18,3.6-13.4,8.8-38.8,9.8-55,2.4h0ZM111.8,140.4c-4.8-5.4-13-15.6-18.2-23-13.6-19.2-31-29.4-50-29.4s-7.6.2-7.6,6.8c0,18.4,19.4,47,34.2,50.2,7.6,1.8,11.6-1.4,7.8-5.8-1.4-1.8-2-4.6-1.2-6.2,1-2.8,1.8-2.8,7.6.2,3.6,1.8,9.8,5.8,13.6,8.8,7,5.4,11.4,7.4,18.8,7.8,2.8.2,1.8-2-5-9.4ZM129,112c1.6-2.6-6.2-15.4-11-18-2-1.2-5.2-2-6.8-2-4.6,0-4,5.4.8,6.6,2.6.6,4,2.8,4,5.8s1,5.8,2.4,7.2c3,3,9,3.2,10.6.4Z"/>
  <image width="100" height="100" transform="translate(-3.3 1.4) scale(2.1)" xlink:href="cloud.tencent.com.webp"/>
</svg>