<svg width="100" height="100" xmlns="http://www.w3.org/2000/svg">
 <g id="Layer_1">
  <title>Layer 1</title>
  <g>
   <!-- Generator: Sketch 61.2 (89653) - https://sketch.com -->
   <title>logo-black</title>
   <desc>Created with Sketch.</desc>
   <g fill-rule="evenodd" fill="none" id="svg_1">
    <g transform="translate(-532 -80)" id="svg_2">
     <g transform="translate(532 80)" id="svg_3">
      <g id="svg_5">
       <circle r="44.85444" cy="50" cx="49.24415" fill="#C71D23" id="svg_7"/>
       <path fill="#FFFFFF" id="svg_6" d="m71.94826,45.01699l-25.47275,0c-1.2231,0.00058 -2.2147,0.99192 -2.21561,2.21502l-0.00145,5.53733c-0.00091,1.22333 0.99053,2.21528 2.21385,2.2156c0.0002,0 0.0004,0 0.0006,-0.00059l15.50776,-0.00013c1.22332,-0.00003 2.21503,0.99166 2.21504,2.21498c0,0.00001 0,0.00001 -0.00002,0.00002l0,0.55369l0,0l0,0.55377c0,3.66996 -2.9751,6.64506 -6.64507,6.64506l-21.04435,0c-1.22315,-0.00006 -2.21471,-0.9916 -2.21481,-2.21475l-0.00058,-21.04231c-0.00028,-3.66997 2.97473,-6.64515 6.6447,-6.64525c0.00006,0 0.00012,0 0.00018,0.00018l31.00632,0c1.22279,-0.00137 2.21427,-0.99223 2.2164,-2.21502l0.00343,-5.53733c0.00214,-1.22332 -0.98895,-2.21564 -2.21227,-2.21639c-0.00046,0 -0.00092,-0.00001 -0.00137,0.00137l-31.01058,0c-9.17492,0 -16.61267,7.43774 -16.61267,16.61266l0,31.00921c0,1.22332 0.9917,2.21502 2.21503,2.21502l32.67217,0c8.25725,0 14.95107,-6.69382 14.95107,-14.95107l0,-12.73605c0,-1.22332 -0.9917,-2.21502 -2.21502,-2.21502z"/>
      </g>
      <path fill-rule="nonzero" fill="#000000" id="svg_4" d="m134.06966,84.55732c6.74212,0 12.12458,-1.31509 16.14737,-3.94529c4.0228,-2.6302 6.0342,-6.03597 6.0342,-10.21731c0,-6.7441 -5.03412,-10.11615 -15.10235,-10.11615l0,0l-6.20274,0c-2.06759,0 -3.55085,-0.20232 -4.4498,-0.60697c-0.89895,-0.40465 -1.34842,-1.07906 -1.34842,-2.02323c0,-0.94417 0.29215,-1.73099 0.87647,-2.36043c0.22474,-0.26977 0.5169,-0.35969 0.87648,-0.26977c1.43831,0.40465 2.80921,0.60697 4.11269,0.60697c4.62958,0 8.39393,-1.11278 11.29304,-3.33833c2.89911,-2.22555 4.34867,-5.51892 4.34867,-9.8801c0,-1.61859 -0.29216,-3.05733 -0.87648,-4.31623c-0.04494,-0.08992 -0.03371,-0.19108 0.03371,-0.30348c0.06743,-0.1124 0.16856,-0.1686 0.3034,-0.1686l0,0l1.55069,0c1.12368,0 2.06758,-0.38217 2.83168,-1.1465c0.76411,-0.76433 1.14617,-1.70851 1.14617,-2.83252l0,0l0,-0.94418c0,-1.07905 -0.38206,-2.01199 -1.14617,-2.7988c-0.7641,-0.78681 -1.708,-1.18021 -2.83168,-1.18021l0,0l-9.91092,0c-0.31463,0 -0.65173,-0.04496 -1.01131,-0.13489c-1.75295,-0.53952 -3.66322,-0.80929 -5.7308,-0.80929c-2.92159,0 -5.59596,0.50581 -8.02312,1.51742c-2.42716,1.01162 -4.43856,2.6302 -6.0342,4.85576c-1.59563,2.22555 -2.39345,4.86699 -2.39345,7.92431c0,2.11315 0.49442,4.04646 1.48327,5.79993c0.98884,1.75346 2.2249,3.16972 3.70816,4.24878c0.0899,0.04496 0.13484,0.1124 0.13484,0.20232c0,0.08992 -0.04494,0.17984 -0.13484,0.26977c-1.25853,0.89921 -2.26984,1.9895 -3.03395,3.27088c-0.76411,1.28138 -1.14616,2.59648 -1.14616,3.9453c0,2.87748 1.14616,5.10304 3.43848,6.67666c0.08989,0.04496 0.13484,0.12364 0.13484,0.23604c0,0.1124 -0.04495,0.21357 -0.13484,0.30349c-1.7979,0.89921 -3.15756,2.00075 -4.07898,3.30461c-0.92142,1.30386 -1.38213,2.7426 -1.38213,4.31622c0,2.24803 0.7641,4.13638 2.29231,5.66504c1.52822,1.52866 3.49467,2.61896 5.89936,3.27089c2.40469,0.65193 5.18019,0.97789 8.32651,0.97789zm0.9439,-36.35069c-1.48327,0 -2.68561,-0.52829 -3.60704,-1.58486c-0.92142,-1.05658 -1.38213,-2.574 -1.38213,-4.55227c0,-1.93331 0.46071,-3.42825 1.38213,-4.48482c0.92143,-1.05658 2.12377,-1.58487 3.60704,-1.58487c1.48326,0 2.68561,0.51705 3.60703,1.55115c0.92142,1.03409 1.38213,2.54027 1.38213,4.51854c0,1.97827 -0.46071,3.49569 -1.38213,4.55227c-0.92142,1.05657 -2.12377,1.58486 -3.60703,1.58486zm0.94389,28.66242c-2.562,0 -4.59587,-0.34844 -6.10161,-1.04533c-1.50574,-0.69689 -2.25861,-1.74223 -2.25861,-3.13601c0,-1.12402 0.51689,-2.18059 1.55069,-3.16973c0.13484,-0.13488 0.3371,-0.20232 0.60679,-0.20232l0,0l0.20226,0c1.12369,0.2248 2.83169,0.33721 5.12401,0.33721l0,0l3.70816,0c1.97769,0 3.42725,0.20232 4.34867,0.60697c0.92142,0.40464 1.38213,1.14649 1.38213,2.22555c0,1.2589 -0.79782,2.30423 -2.39345,3.136c-1.59563,0.83178 -3.65198,1.24766 -6.16904,1.24766zm32.63185,-53.81791c2.02264,0 3.68569,-0.58449 4.98917,-1.75346c1.30347,-1.16898 1.95521,-2.67516 1.95521,-4.51855c0,-1.84339 -0.65174,-3.36081 -1.95521,-4.55227c-1.30348,-1.19145 -2.96653,-1.78718 -4.98917,-1.78718c-2.06758,0 -3.76435,0.59573 -5.0903,1.78718c-1.32595,1.19146 -1.98892,2.70888 -1.98892,4.55227c0,1.84339 0.66297,3.34957 1.98892,4.51855c1.32595,1.16897 3.02272,1.75346 5.0903,1.75346zm2.09006,44.78082c1.07873,0 2.01139,-0.39341 2.79797,-1.18022c0.78658,-0.78681 1.17987,-1.71974 1.17987,-2.7988l0,0l0,-31.36006c0,-1.07905 -0.39329,-2.01199 -1.17987,-2.7988c-0.78658,-0.78681 -1.71924,-1.18022 -2.79797,-1.18022l0,0l-4.24754,0c-1.12368,0 -2.06758,0.39341 -2.83169,1.18022c-0.7641,0.78681 -1.14616,1.71975 -1.14616,2.7988l0,0l0,31.36006c0,1.07906 0.38206,2.01199 1.14616,2.7988c0.76411,0.78681 1.70801,1.18022 2.83169,1.18022l0,0l4.24754,0zm29.3282,0.94417c1.70801,0 3.39354,-0.15736 5.05659,-0.47208c1.07874,-0.17985 1.91027,-0.76433 2.49459,-1.75347c0.40452,-0.67441 0.60679,-1.3713 0.60679,-2.09067c0,-0.31472 -0.02248,-0.65193 -0.06743,-1.01161l0,0l-0.26968,-1.07906c-0.22474,-0.94417 -0.78658,-1.69727 -1.68553,-2.25927c-0.89895,-0.56201 -1.91027,-0.8655 -3.03395,-0.91046c-3.10138,-0.13488 -4.65206,-2.15811 -4.65206,-6.06969l0,0l0,-14.49981c0,-0.31472 0.15731,-0.47209 0.47195,-0.47209l0,0l4.7869,0c1.07874,0 2.0114,-0.3934 2.79798,-1.18021c0.78658,-0.78681 1.17987,-1.71975 1.17987,-2.7988l0,0l0,-1.68603c0,-1.07905 -0.39329,-2.01199 -1.17987,-2.7988c-0.78658,-0.78681 -1.71924,-1.18022 -2.79798,-1.18022l0,0l-4.7869,0c-0.31464,0 -0.47195,-0.15736 -0.47195,-0.47208l0,0l0,-5.86737c0,-1.12402 -0.39329,-2.06819 -1.17987,-2.83252c-0.78658,-0.76433 -1.71924,-1.1465 -2.79798,-1.1465l0,0l-2.29232,0c-1.12369,0 -2.11253,0.37093 -2.96653,1.11278c-0.854,0.74185 -1.3709,1.67478 -1.55069,2.7988l0,0l-0.74163,5.93481c-0.04495,0.31472 -0.24721,0.49456 -0.60679,0.53952l0,0l-1.55069,0.13489c-1.12369,0.08992 -2.06758,0.55076 -2.83169,1.38254c-0.76411,0.83177 -1.14616,1.80966 -1.14616,2.93368l0,0l0,1.1465c0,1.07905 0.39329,2.01199 1.17987,2.7988c0.78658,0.78681 1.71924,1.18021 2.79798,1.18021l0,0l0.87648,0c0.31463,0 0.47194,0.15737 0.47194,0.47209l0,0l0,14.6347c0,4.90071 1.12369,8.71112 3.37106,11.43124c2.24737,2.72012 5.75327,4.08018 10.5177,4.08018zm32.96896,0c3.59579,0 7.14664,-0.83177 10.65254,-2.49531c0.98884,-0.44961 1.61811,-1.23642 1.88779,-2.36044c0.13485,-0.35968 0.20227,-0.71937 0.20227,-1.07905c0,-0.67441 -0.20227,-1.34882 -0.60679,-2.02323l0,0l-0.20227,-0.40465c-0.53937,-0.94417 -1.32595,-1.57362 -2.35974,-1.88835c-0.49442,-0.13488 -0.98884,-0.20232 -1.48326,-0.20232c-0.58432,0 -1.14616,0.08992 -1.68553,0.26976c-1.52822,0.53953 -3.10138,0.8093 -4.71949,0.8093c-5.30379,0 -8.51754,-2.36044 -9.64122,-7.08131c-0.04495,-0.13488 -0.02248,-0.25852 0.06742,-0.37092c0.08989,-0.11241 0.20226,-0.16861 0.33711,-0.16861l0,0l18.54082,0c1.16863,0 2.20242,-0.37092 3.10137,-1.11277c0.89895,-0.74185 1.3709,-1.67479 1.41584,-2.7988l0,0l0,-1.28138c0,-5.66505 -1.43831,-10.25103 -4.31495,-13.75796c-2.87664,-3.50694 -7.05675,-5.2604 -12.54034,-5.2604c-2.38221,0 -4.68577,0.48333 -6.91067,1.44998c-2.2249,0.96665 -4.20258,2.31547 -5.93306,4.04646c-1.73048,1.73098 -3.12385,3.91158 -4.18011,6.54178c-1.05627,2.63019 -1.5844,5.49644 -1.5844,8.59872c0,6.33945 1.87656,11.35257 5.62967,15.03934c3.75311,3.68678 8.52878,5.53016 14.327,5.53016zm4.58464,-24.95316l-12.33808,0c-0.31463,0 -0.47195,-0.1124 -0.47195,-0.33721c0,-1.84338 0.87648,-3.48445 2.62943,-4.92319c1.25853,-1.07906 2.76427,-1.61858 4.51722,-1.61858c2.02263,0 3.53961,0.57324 4.55093,1.71974c1.01131,1.1465 1.56192,2.6864 1.65181,4.61971l0,0l0,0.06744c0,0.31473 -0.17979,0.47209 -0.53936,0.47209l0,0zm36.54227,24.95316c3.59579,0 7.14664,-0.83177 10.65254,-2.49531c0.98885,-0.44961 1.61811,-1.23642 1.8878,-2.36044c0.13484,-0.35968 0.20226,-0.71937 0.20226,-1.07905c0,-0.67441 -0.20226,-1.34882 -0.60679,-2.02323l0,0l-0.20226,-0.40465c-0.53937,-0.94417 -1.32595,-1.57362 -2.35974,-1.88835c-0.49443,-0.13488 -0.98885,-0.20232 -1.48327,-0.20232c-0.58432,0 -1.14616,0.08992 -1.68553,0.26976c-1.52821,0.53953 -3.10137,0.8093 -4.71948,0.8093c-5.3038,0 -8.51754,-2.36044 -9.64123,-7.08131c-0.04495,-0.13488 -0.02247,-0.25852 0.06742,-0.37092c0.0899,-0.11241 0.20227,-0.16861 0.33711,-0.16861l0,0l18.54082,0c1.16863,0 2.20243,-0.37092 3.10137,-1.11277c0.89895,-0.74185 1.3709,-1.67479 1.41585,-2.7988l0,0l0,-1.28138c0,-5.66505 -1.43832,-10.25103 -4.31496,-13.75796c-2.87663,-3.50694 -7.05675,-5.2604 -12.54033,-5.2604c-2.38222,0 -4.68577,0.48333 -6.91067,1.44998c-2.2249,0.96665 -4.20259,2.31547 -5.93307,4.04646c-1.73047,1.73098 -3.12384,3.91158 -4.18011,6.54178c-1.05626,2.63019 -1.5844,5.49644 -1.5844,8.59872c0,6.33945 1.87656,11.35257 5.62967,15.03934c3.75311,3.68678 8.52878,5.53016 14.327,5.53016zm4.58464,-24.95316l-12.33808,0c-0.31463,0 -0.47194,-0.1124 -0.47194,-0.33721c0,-1.84338 0.87647,-3.48445 2.62942,-4.92319c1.25853,-1.07906 2.76427,-1.61858 4.51722,-1.61858c2.02264,0 3.53961,0.57324 4.55093,1.71974c1.01132,1.1465 1.56192,2.6864 1.65182,4.61971l0,0l0,0.06744c0,0.31473 -0.17979,0.47209 -0.53937,0.47209l0,0z"/>
     </g>
    </g>
   </g>
  </g>
 </g>

</svg>