<svg width="300" height="176.95" xmlns="http://www.w3.org/2000/svg">

 <g>
  <title>Layer 1</title>
  <g data-name="图层 2" id="图层_2">
   <g data-name="图层 1" id="图层_1-2">
    <path id="svg_1" fill="#e1251b" d="m268.16,73.84c2.86,4 5,9.43 4.76,20.81c-3.22,35.73 -33.55,58.29 -63.75,58.29c-32.68,0 -55.69,-23.52 -69.53,-49.8c-3.27,-6.21 -5.64,-13.14 -7.87,-19.14c-4.37,5.94 -13.58,15.63 -18.27,20.14a116,116 0 0 0 11.06,22.86c3.69,5.75 13,18.76 26.31,29.06c12.1,9.33 23.71,15.06 36.84,18.33a89.94,89.94 0 0 0 65.39,-9.22c23.75,-13.61 40.49,-38.68 43.52,-64.71c-5.85,-9.7 -18.53,-21.16 -28.46,-26.62z" class="cls-1"/>
    <path id="svg_2" fill="#e1251b" d="m68.35,64.37a44.06,44.06 0 0 1 23.41,6.71c5.63,-6 10.61,-12.2 15.78,-18.45a68.32,68.32 0 0 0 -107.54,55.97a68.79,68.79 0 0 0 0.81,10.51c1.91,2.36 21.15,0.76 24.15,-1.94a44.71,44.71 0 0 1 -0.84,-8.57a44.23,44.23 0 0 1 44.23,-44.23z" class="cls-1"/>
    <path id="svg_3" fill="#e1251b" d="m68.35,177a68.34,68.34 0 0 1 -59.18,-34.18c0.92,-1.22 22.42,-3.61 27.55,-3.32a44.08,44.08 0 0 0 31.63,13.33s27.2,2.09 52.62,-18c0,0 9.56,13.62 16.9,18.74c0,0 -23.97,23.43 -69.52,23.43z" class="cls-1"/>
    <path id="svg_4" fill="#e1251b" d="m245.29,7.8c-32.29,-13.57 -63.79,-9.61 -94.92,13.27c-27.45,20.17 -38.37,40.49 -55.93,57.93c-21,20.86 -36.75,27.88 -49.24,32.6c-12.9,4.88 -30.9,8.21 -44.39,7.47a68.48,68.48 0 0 0 8.36,23.71c34.44,-0.59 58.72,-13.77 74.38,-23.32c13.69,-8.35 34.29,-29.38 45.1,-43c17.37,-21.86 40,-42.77 60.69,-49.33c28.9,-9.15 57,3.65 70.62,21.73c1.22,1.59 26.76,10.76 34.79,17.66c-2.95,-12.52 -16.87,-45.02 -49.46,-58.72z" class="cls-1"/>
    <path id="svg_5" fill="#e1251b" d="m294,63.76a91.7,91.7 0 0 0 -52.15,-16.76c-22.61,0 -45.25,8.81 -61.18,24.5c-11.59,11.4 -17.23,20.65 -30.08,36.06a105.16,105.16 0 0 0 17.08,20c1.66,-2.42 11,-15.64 18,-24.93c9,-11.82 18.14,-21.27 32,-26.74a64.54,64.54 0 0 1 78.82,25.69a89.61,89.61 0 0 0 -2.49,-37.82z" class="cls-1"/>
    <path id="svg_6" d="m436.12,45.74l71.64,0l0,15.17l-166.12,0l0,-15.17l71.27,0l0,-9.87l23.21,0l0,9.87zm-74.38,83.88l24.85,0l-29.42,43.68l-15.53,0l20.1,-43.68zm74.38,-10.42l0,24.13q0,18.63 -10.6,26.68q-9.13,6.94 -27.6,6.94l0,-15.17c5.49,-0.24 9.32,-1.46 11.52,-3.65s3.47,-6.15 3.47,-11.51l0,-27.42l-60.86,0l0,-48.06l145.11,0l0,48.06l-61.04,0zm-61.59,-15.35l100.33,0l0,-17.54l-100.33,0l0,17.54zm112.76,25.77l20.47,43.68l-15.9,0l-29.43,-43.68l24.86,0z"/>
    <path id="svg_7" d="m631.84,112.62l0,30.89q0,33.44 -38.37,33.44l0,-14.8q8.4,-0.74 11.69,-4.2q3.47,-3.66 3.47,-12.06l0,-33.27l-66.52,0l20.11,-51.71l-26.69,0l0,-15.35l32.53,0l3.84,-9.69l23.39,0l-3.65,9.69l110,0l0,15.35l-116,0l-14.29,36.73l37.28,0l0,-22.64l23.21,0l0,22.64l63.23,0l0,15l-63.23,-0.02zm-75.29,15l24.85,0l-30.15,45.68l-15.72,0l21.02,-45.68zm123.9,0l21.2,45.69l-15.9,0l-30.33,-45.69l25.03,0z"/>
    <path id="svg_8" d="m789.19,102.39l-26,59.94l99.81,0l-16.81,-38.74l23.94,0l20.12,53.41l-154.79,0l28.54,-74.61l-34.57,0l0,-15.39l166.12,0l0,15.35l-106.36,0.04zm93.75,-60.12l0,15.35l-141.08,0l0,-15.35l141.08,0z"/>
   </g>
  </g>
 </g>
</svg>