<svg width="100" height="100" xmlns="http://www.w3.org/2000/svg">
 <g id="Layer_1">
  <title>Layer 1</title>
  <g stroke="null">
   <path stroke="null" fill="url(#svg_2)" d="m83.09514,65.62419c-0.78983,-0.27225 -1.45468,-0.82079 -1.87187,-1.54408c-0.41748,-0.72387 -0.55925,-1.57388 -0.39926,-2.3938c0.13222,-0.67613 0.48258,-1.29006 0.99669,-1.74834c1.35689,-1.33433 2.28878,-3.03984 2.67993,-4.90188c0.50804,-2.68196 -0.06596,-5.45592 -1.59702,-7.71548c-1.53077,-2.25956 -3.89419,-3.82129 -6.57326,-4.34379l-0.13048,0c-1.07857,-0.29395 -2.17334,-0.58818 -3.26811,-0.81703c-9.24451,-2.07324 -18.8877,-1.48535 -27.81165,1.69568c-8.9245,3.18103 -16.76511,8.825 -22.61395,16.27836c-1.4979,1.70407 -2.62459,3.70151 -3.30818,5.86472c-0.68362,2.1635 -0.90923,4.44563 -0.66245,6.70085c0,0 0,0.13077 0,0.19616c0,0.06539 0,0.39202 0,0.58818c0.00923,0.10878 0.00923,0.21814 0,0.32693c0,0.09808 0,0.21236 0,0.31015c1.06211,5.17991 3.5458,13.3175 18.97094,17.02653c15.42517,3.70932 38.72581,1.35631 48.39938,-14.00318c0.50428,-0.92205 0.95677,-1.8713 1.35602,-2.8434c0.10415,-0.28874 0.19153,-0.58326 0.26154,-0.88212c0.3223,-1.61467 0.05208,-3.29126 -0.76119,-4.72279c-0.81327,-1.43154 -2.11519,-2.52197 -3.66708,-3.07167zm-14.52626,8.64389c-1.23393,0 -2.44038,-0.36685 -3.46543,-1.05369c-1.02505,-0.68713 -1.82298,-1.66328 -2.29225,-2.80492c-0.46927,-1.14135 -0.58876,-2.39611 -0.34313,-3.60574c0.24563,-1.20934 0.84509,-2.31858 1.7223,-3.18653c0.87721,-0.86795 1.99281,-1.45584 3.20446,-1.68845c1.21194,-0.2329 2.46555,-0.1001 3.60198,0.38132c1.13643,0.48113 2.10419,1.28919 2.78033,2.32147c0.67642,1.03228 1.03025,2.24249 1.01723,3.47613c-0.02141,1.63869 -0.68626,3.20302 -1.85104,4.35536c-1.16479,1.15263 -2.73577,1.80099 -4.37446,1.80504z"/>
   <path stroke="null" fill="url(#svg_1)" d="m83.63355,29.02274l-9.39554,3.41491l-8.41504,-23.15387c-0.287,-0.77927 -0.87142,-1.41296 -1.6248,-1.76214c-0.75367,-0.34918 -1.61467,-0.38537 -2.39496,-0.10062l-48.88948,17.77794c-0.78344,0.28735 -1.42112,0.87327 -1.77333,1.62986c-0.35221,0.75659 -0.39023,1.62159 -0.10577,2.40621l8.41516,23.13761l-9.37922,3.4148c-0.36662,0.13309 -0.70333,0.33734 -0.99073,0.6012c-0.28738,0.26357 -0.51979,0.58153 -0.6838,0.93536c-0.16401,0.35383 -0.25642,0.73689 -0.2719,1.12631c-0.01548,0.38971 0.04626,0.77884 0.18172,1.14453l2.74512,7.54912c0.26909,0.74094 0.82119,1.34445 1.53505,1.67832c0.71386,0.33416 1.53112,0.3709 2.2722,0.10271l73.53023,-26.76491c0.74094,-0.26906 1.34445,-0.82137 1.67861,-1.53511c0.33387,-0.71403 0.3709,-1.53106 0.10242,-2.27229l-2.74503,-7.56547c-0.27254,-0.73391 -0.8231,-1.33051 -1.5328,-1.66114c-0.70969,-0.33034 -1.52093,-0.36746 -2.25811,-0.10334z"/>
   <path stroke="null" fill="#1712EB" d="m18.77954,67.50359l61.84716,-22.53308l-61.83081,29.15061c-0.46048,-2.18115 -0.46603,-4.43406 -0.01635,-6.61752z"/>
   <path stroke="null" fill="black" d="m133.91175,28.8918l5.55573,13.85618l9.65679,0l-7.27109,-18.13742c-0.18053,-0.48206 -0.50457,-0.89708 -0.92813,-1.18923c-0.42356,-0.29209 -0.92668,-0.44734 -1.44137,-0.44477l-20.60479,0c-0.51411,-0.00026 -1.01608,0.15588 -1.43906,0.44772c-0.42327,0.29189 -0.74788,0.70555 -0.93015,1.18628l-7.27138,18.13742l9.65679,0l5.57194,-13.85618l9.44472,0z"/>
   <path stroke="null" fill="black" d="m160.03987,32.02755l-8.72577,0l0,34.78776l8.72577,0l0,-34.78776z"/>
   <path stroke="null" fill="black" d="m153.63442,72.07999l0,2.74503c0,0.67179 0.26675,1.31581 0.74181,1.79087c0.47506,0.47477 1.11936,0.74181 1.79116,0.74181l14.23203,0c0.67179,0 1.31581,-0.26704 1.79087,-0.74181c0.47506,-0.47506 0.7421,-1.11907 0.7421,-1.79087l0,-51.96149l-9.68977,0l0,49.21646l-9.60818,0z"/>
   <path stroke="null" fill="black" d="m112.81657,74.82328c-0.00231,0.333 0.06191,0.6634 0.18834,0.97152c0.12672,0.30841 0.31304,0.58847 0.54854,0.82426c0.2355,0.2355 0.51585,0.42182 0.82397,0.54854c0.30841,0.12643 0.63881,0.19037 0.97181,0.18806l28.44815,0c0.6715,0 1.31581,-0.26675 1.79087,-0.74152c0.47506,-0.47506 0.74181,-1.11936 0.74181,-1.79087l0,-2.74532l-23.82401,0l0,-21.69956l13.30101,0l0,10.19607l-6.92825,0l0,2.76181c0,0.6715 0.26675,1.31581 0.74181,1.79087c0.47506,0.47477 1.11936,0.74152 1.79087,0.74152l11.55268,0c0.6715,0 1.31581,-0.26675 1.79087,-0.74152c0.47477,-0.47506 0.74152,-1.11936 0.74152,-1.79087l0,-18.23587l-27.51655,0l-5.16342,0.13077l0,29.5921z"/>
   <path stroke="null" fill="black" d="m236.28215,52.7314c-3.35173,-0.07059 -6.69622,-0.33792 -10.01641,-0.80054c3.8181,-1.40058 7.43397,-3.30167 10.75156,-5.65381c0.68452,-0.49126 1.24203,-1.13933 1.62567,-1.88981c0.38363,-0.7502 0.58268,-1.58111 0.58037,-2.42389l0,-2.99008l-37.68022,0c0.32895,-0.69089 0.61827,-1.40029 0.86621,-2.12416l-7.07522,0c-0.8746,1.52788 -2.1311,2.8026 -3.64625,3.69919c-1.51544,0.89688 -3.23745,1.38409 -4.99793,1.41504l0,6.25819c1.94044,0.01938 3.86815,-0.31825 5.68651,-0.99669c2.99239,1.83831 6.14189,3.40785 9.41203,4.68952c-3.34681,0.47477 -6.71878,0.74788 -10.09828,0.81703l-9.59169,0l0,2.74503c0.01707,0.68655 0.30523,1.33809 0.80112,1.81256c0.49589,0.47448 1.15958,0.73342 1.84584,0.7204l6.86315,0c7.52048,-0.05584 15.0155,-0.87721 22.36933,-2.45108c7.32201,1.63579 14.80198,2.45774 22.30423,2.45108l6.87935,0c0.33908,0.00636 0.67584,-0.0541 0.99178,-0.17764c0.31564,-0.12383 0.6038,-0.30841 0.84827,-0.54391c0.24418,-0.23521 0.43976,-0.51614 0.57545,-0.82686c0.13569,-0.31101 0.20889,-0.64517 0.21525,-0.98454l0,-2.74503l-9.5101,0zm-38.6934,-8.46394l32.77834,0l-1.38901,0.63707c-4.82695,2.12271 -9.85121,3.76458 -15.00016,4.90188c0,0 -10.63757,-2.51618 -16.38917,-5.53895z"/>
   <path stroke="null" fill="black" d="m194.2078,30.52713l39.54284,0l0,6.37262l10.09799,0l0,-9.06887c-0.01707,-0.6818 -0.3032,-1.32918 -0.7962,-1.80079c-0.49271,-0.47135 -1.15235,-0.72882 -1.83426,-0.71545l-22.18967,0l0,-2.45111l-10.09857,0l0,2.45111l-22.18967,0c-0.68192,-0.01337 -1.34156,0.2441 -1.83455,0.71545c-0.49271,0.47161 -0.77884,1.11899 -0.7962,1.80079l0,9.06887l10.09828,0l0,-6.37262z"/>
   <path stroke="null" fill="black" d="m238.03135,60.11764l-48.49717,0c-0.344,-0.01302 -0.68713,0.04224 -1.00942,0.16288c-0.32201,0.12036 -0.6174,0.30407 -0.86824,0.53957c-0.25084,0.23579 -0.45249,0.51874 -0.59281,0.83294c-0.14061,0.3142 -0.21728,0.65328 -0.22567,0.99727l0,12.17326c0.01736,0.68626 0.30523,1.3378 0.80112,1.81228c0.49589,0.47448 1.15958,0.73371 1.84584,0.72069l48.49745,0c0.33937,0.00636 0.67613,-0.0541 0.99206,-0.17764c0.31564,-0.12412 0.6038,-0.3087 0.84799,-0.54391c0.24447,-0.23521 0.44005,-0.51614 0.57545,-0.82686c0.13569,-0.31101 0.20889,-0.64546 0.21525,-0.98454l0,-12.17326c-0.01273,-0.67642 -0.29047,-1.32044 -0.77334,-1.79405c-0.48287,-0.47361 -1.13209,-0.73891 -1.80851,-0.73862zm-7.46724,11.9609l-33.57888,0l0,-6.6832l33.57888,0l0,6.6832z"/>
   <path stroke="null" fill="black" d="m263.53774,30.73792l13.90452,0l0,32.99067l7.77942,0l0,-35.58861c0.01591,-0.69089 -0.24042,-1.36042 -0.71316,-1.8625c-0.47535,-0.50208 -1.12949,-0.79611 -1.82124,-0.81746l-24.39483,0c-0.6906,0.02135 -1.34445,0.31538 -1.81922,0.81746c-0.47448,0.50208 -0.7311,1.17161 -0.71345,1.8625l0,35.58861l7.77797,0l0,-32.99067z"/>
   <path stroke="null" fill="black" d="m305.45181,32.03041l0,-9.16689l-7.77971,0l0,22.87627l-6.25733,0c-0.35499,-0.00058 -0.70767,0.07146 -1.03604,0.21207c-0.32577,0.14032 -0.62232,0.34631 -0.86795,0.60467c-0.24303,0.25865 -0.43282,0.56446 -0.55549,0.8989c-0.12296,0.33416 -0.17648,0.69031 -0.15507,1.04559l0,26.14433c-0.01331,0.35152 0.04542,0.70188 0.17099,1.03054c0.12556,0.32837 0.31507,0.62839 0.55809,0.88184c0.24592,0.25315 0.53697,0.45452 0.86274,0.59194c0.32317,0.13771 0.67035,0.20802 1.02273,0.20802l24.51027,0c0.677,-0.05034 1.30771,-0.36107 1.75904,-0.86737c0.45133,-0.50601 0.68568,-1.16768 0.65964,-1.84497l0,-26.14433c0.01736,-0.6906 -0.24013,-1.36036 -0.71461,-1.86233c-0.47448,-0.50225 -1.12833,-0.79591 -1.8169,-0.81732l-10.3604,0l0,-8.51341l11.89378,0c0.69147,-0.02141 1.34532,-0.31507 1.8198,-0.81703c0.47448,-0.50225 0.73197,-1.17196 0.71172,-1.86256l0,-2.59797l-14.42529,0zm5.11511,40.04957l-13.98987,0l0,-21.06249l13.98987,0l0,21.06249z"/>
   <path stroke="null" fill="black" d="m281.33298,67.25738c-1.00942,-0.05584 -2.01104,0.19268 -2.87638,0.71259c-0.86505,0.5199 -1.55681,1.28775 -1.98152,2.20401c-0.42472,0.91626 -0.56619,1.93928 -0.40331,2.93627c0.16288,0.99669 0.61971,1.92222 1.31407,2.65621c0.69436,0.73428 1.59153,1.24348 2.57694,1.46191c0.9857,0.21843 2.01653,0.13598 2.95392,-0.23637c0.93999,-0.37264 1.7466,-1.01839 2.31279,-1.85394c0.5688,-0.83497 0.87316,-1.82153 0.87576,-2.83154c0.01881,-0.64517 -0.09085,-1.28803 -0.31767,-1.89126c-0.22972,-0.60322 -0.5769,-1.15524 -1.02013,-1.62422c-0.44352,-0.46927 -0.97499,-0.84654 -1.5652,-1.10953c-0.58731,-0.26299 -1.22294,-0.40707 -1.86927,-0.42414z"/>
   <path stroke="null" fill="#479344" d="m276.90789,46.86639l-0.13337,0l0,0.1328l0.13337,0l0,-0.1328z"/>
   <path stroke="null" fill="black" d="m266.6421,34.9532l0,26.30753c0.02054,1.21686 -0.21352,2.42447 -0.68626,3.54586c-0.78983,1.78508 -2.19273,3.22819 -3.95437,4.06865l-0.11428,0c-1.05658,0.50428 -2.21182,0.7664 -3.38239,0.76813l-3.44778,0l0,4.29721c-0.04455,0.85609 0.24852,1.6951 0.81674,2.3368c0.52308,0.55201 1.22236,0.9044 1.97719,0.99669l0.76813,0c4.20926,0 8.24666,-1.67109 11.22488,-4.64612c2.97793,-2.97504 4.65307,-7.0107 4.6577,-11.22025l0,-26.4545l-7.85956,0z"/>

  </g>
 </g>
 <defs>
  <linearGradient gradientTransform="matrix(2.8931593894958496,0,0,2.8931593894958496,8.121801376342773,6.562656402587891)" gradientUnits="userSpaceOnUse" y2="17.483" x2="25.8237" y1="24.3056" x1="7.68847" id="svg_2">
   <stop stop-color="#173DF3"/>
   <stop stop-color="#1A42F3" offset="0.26"/>
   <stop stop-color="#2251F3" offset="0.57"/>
   <stop stop-color="#2F69F4" offset="0.91"/>
   <stop stop-color="#3371F4" offset="1"/>
  </linearGradient>
  <linearGradient gradientTransform="matrix(2.8931593894958496,0,0,2.8931593894958496,8.121801376342773,6.562656402587891)" gradientUnits="userSpaceOnUse" y2="6.68436" x2="22.0111" y1="13.4279" x1="3.69517" id="svg_1">
   <stop stop-color="#173DF3"/>
   <stop stop-color="#204EF3" offset="0.38"/>
   <stop stop-color="#3371F4" offset="1"/>
  </linearGradient>
 </defs>
</svg>